HIERARCHY
ROOT Hips
{
 OFFSET 0.000000 0.000000 0.000000
 CHANNELS 6 Xposition Yposition Zposition Yrotation Xrotation Zrotation
 JOINT Chest
 {
  OFFSET 0.000000 9.585900 0.002600
  CHANNELS 3 Yrotation Xrotation Zrotation
  JOINT Chest2
  {
   OFFSET 0.000000 9.601200 -0.005300
   CHANNELS 3 Yrotation Xrotation Zrotation
   JOINT Chest3
   {
    OFFSET 0.000000 9.561800 0.000000
    CHANNELS 3 Yrotation Xrotation Zrotation
    JOINT Chest4
    {
     OFFSET 0.000000 9.552100 0.000000
     CHANNELS 3 Yrotation Xrotation Zrotation
     JOINT Neck
     {
      OFFSET 0.000000 14.453000 0.000000
      CHANNELS 3 Yrotation Xrotation Zrotation
      JOINT Head
      {
       OFFSET 0.000000 8.936500 -0.011300
       CHANNELS 3 Yrotation Xrotation Zrotation
       End Site
       {
        OFFSET 0.000000 17.073600 -0.006000
       }
      }
     }
     JOINT RightCollar
     {
      OFFSET -2.921100 9.558500 0.000000
      CHANNELS 3 Yrotation Xrotation Zrotation
      JOINT RightShoulder
      {
       OFFSET -13.519700 0.000000 0.000000
       CHANNELS 3 Yrotation Xrotation Zrotation
       JOINT RightElbow
       {
        OFFSET 0.000000 -29.696600 0.000000
        CHANNELS 3 Yrotation Xrotation Zrotation
        JOINT RightWrist
        {
         OFFSET 0.000000 -24.004700 0.000000
         CHANNELS 3 Yrotation Xrotation Zrotation
         End Site
         {
          OFFSET 0.000000 -17.728500 0.000000
         }
        }
       }
      }
     }
     JOINT LeftCollar
     {
      OFFSET 2.921100 9.558500 0.000000
      CHANNELS 3 Yrotation Xrotation Zrotation
      JOINT LeftShoulder
      {
       OFFSET 13.519700 0.000000 0.000000
       CHANNELS 3 Yrotation Xrotation Zrotation
       JOINT LeftElbow
       {
        OFFSET 0.000000 -29.696600 0.000000
        CHANNELS 3 Yrotation Xrotation Zrotation
        JOINT LeftWrist
        {
         OFFSET 0.000000 -24.004700 0.000000
         CHANNELS 3 Yrotation Xrotation Zrotation
         End Site
         {
          OFFSET 0.000000 -17.728500 0.000000
         }
        }
       }
      }
     }
    }
   }
  }
 }
 JOINT RightHip
 {
  OFFSET -7.771700 -0.012900 -0.001300
  CHANNELS 3 Yrotation Xrotation Zrotation
  JOINT RightKnee
  {
   OFFSET 0.000000 -40.869800 0.001200
   CHANNELS 3 Yrotation Xrotation Zrotation
   JOINT RightAnkle
   {
    OFFSET 0.000000 -39.717900 0.002100
    CHANNELS 3 Yrotation Xrotation Zrotation
    JOINT RightToe
    {
     OFFSET 0.000000 -4.965400 11.033500
     CHANNELS 3 Yrotation Xrotation Zrotation
     End Site
     {
      OFFSET 0.000000 -1.423100 5.872300
     }
    }
   }
  }
 }
 JOINT LeftHip
 {
  OFFSET 7.771700 -0.012900 -0.001300
  CHANNELS 3 Yrotation Xrotation Zrotation
  JOINT LeftKnee
  {
   OFFSET 0.000000 -40.869800 0.001200
   CHANNELS 3 Yrotation Xrotation Zrotation
   JOINT LeftAnkle
   {
    OFFSET 0.000000 -39.717900 0.002100
    CHANNELS 3 Yrotation Xrotation Zrotation
    JOINT LeftToe
    {
     OFFSET 0.000000 -4.965400 11.033500
     CHANNELS 3 Yrotation Xrotation Zrotation
     End Site
     {
      OFFSET 0.000000 -1.423100 5.872300
     }
    }
   }
  }
 }
}
MOTION
Frames: 9
Frame Time: 0.008333
-17.437961 57.567909 71.233135 178.932860 -44.871861 -2.317117 1.327795 28.321098 5.320886 0.136864 5.314847 0.722496 0.262489 8.367031 1.150998 1.125055 23.009653 3.373941 -0.598591 12.354226 -2.927695 0.019986 -12.981247 -5.375635 3.024314 0.354794 -1.127250 15.865852 -25.305999 -22.538144 18.680725 -74.375798 7.480251 17.583405 10.249585 -18.650156 -11.567800 -3.893779 -5.120269 -12.657029 -29.794106 11.936820 -63.666703 -63.125158 30.524033 -13.202409 -1.053151 15.406070 6.321563 -27.073775 -2.494521 -7.638485 63.637085 -9.234788 5.418286 13.981744 9.335196 -0.431586 -6.224114 0.273107 -6.474516 -32.215031 -1.732949 29.139509 53.591501 27.419063 -11.748095 44.171571 3.292221 1.160371 -21.469320 -7.313748
-17.443071 57.573822 71.234884 178.932394 -44.939419 -2.336070 1.323139 28.357543 5.328399 0.143966 5.331496 0.725742 0.255459 8.355404 1.146167 1.126506 23.025075 3.375766 -0.607262 12.311922 -2.950609 0.030456 -13.043975 -5.412201 3.035684 0.367495 -1.127733 15.989683 -25.533401 -22.559741 18.712218 -74.084422 7.305842 17.518260 10.373691 -18.383513 -11.631440 -3.930748 -5.143242 -12.747993 -30.049718 12.034844 -63.054798 -62.903882 29.903395 -13.156718 -0.851026 15.110308 6.317907 -26.999597 -2.458421 -7.650453 63.619228 -9.259815 5.413600 14.006444 9.349042 -0.423171 -6.240936 0.275755 -6.478279 -32.144758 -1.731148 29.138347 53.584241 27.425753 -11.732094 44.183021 3.301409 1.138639 -21.465743 -7.312476
-17.450350 57.575409 71.239722 178.934324 -44.969140 -2.346854 1.305444 28.358465 5.321765 0.152952 5.346844 0.729153 0.223429 8.319604 1.137276 1.151587 23.063897 3.378364 -0.619588 12.265927 -2.969419 0.049679 -13.104543 -5.452333 3.041948 0.387736 -1.136296 16.133413 -25.768440 -22.585017 18.804975 -73.785870 7.076660 17.443668 10.486471 -18.138632 -11.713219 -3.973484 -5.172805 -12.802512 -30.298967 12.107860 -62.319229 -62.651002 29.201407 -13.155209 -0.668393 14.801309 6.323538 -26.966530 -2.445560 -7.663727 63.608773 -9.273830 5.399551 14.018852 9.345929 -0.407179 -6.245522 0.286413 -6.477697 -32.111140 -1.737521 29.099975 53.576241 27.402763 -11.705031 44.197511 3.300380 1.125608 -21.456702 -7.307467
-17.458015 57.576685 71.243678 178.919260 -44.995240 -2.346210 1.295071 28.357897 5.313054 0.128024 5.316919 0.721099 0.265514 8.370577 1.147356 1.081555 23.020549 3.366464 -0.582952 12.257644 -3.000687 0.068060 -13.162399 -5.491647 3.103583 0.452895 -1.161170 16.283255 -26.001904 -22.616056 18.902935 -73.485030 6.845372 17.366302 10.602110 -17.899079 -11.721681 -3.960016 -5.222105 -12.861905 -30.560822 12.151434 -61.644330 -62.443012 28.564618 -13.166465 -0.415713 14.468148 6.343206 -26.936559 -2.431098 -7.701285 63.589609 -9.317187 5.410106 14.038739 9.362657 -0.402793 -6.254502 0.289619 -6.463594 -32.079835 -1.744066 29.028928 53.575164 27.359295 -11.688749 44.218282 3.271162 1.117571 -21.456107 -7.293500
-17.456522 57.577612 71.247513 178.927136 -45.014038 -2.419593 1.296531 28.352650 5.368111 0.124243 5.316960 0.720376 0.262480 8.367467 1.146706 1.061124 23.024518 3.360844 -0.571070 12.222778 -3.022102 0.090295 -13.220914 -5.533209 3.147876 0.495400 -1.182094 16.438051 -26.235509 -22.656300 18.957918 -73.184503 6.660998 17.295152 10.725529 -17.662752 -11.730017 -3.959971 -5.257051 -12.928670 -30.826560 12.170823 -61.078266 -62.236979 28.008949 -13.154730 -0.139210 14.148975 6.342481 -26.915894 -2.361753 -7.742256 63.565179 -9.353556 5.480540 14.038158 9.439412 -0.463654 -6.251469 0.258554 -6.503980 -32.050071 -1.682661 29.022264 53.568197 27.365359 -11.622572 44.231531 3.326960 1.074416 -21.460810 -7.309344
-17.464017 57.580356 71.247639 178.921170 -45.050196 -2.431861 1.289307 28.372448 5.370810 0.128161 5.322621 0.722277 0.203443 8.330983 1.134133 1.066271 23.043687 3.356444 -0.588651 12.135645 -3.052559 0.155748 -13.223652 -5.576600 3.196859 0.547742 -1.209628 16.606422 -26.471471 -22.702926 18.957108 -72.887169 6.536535 17.230582 10.853824 -17.434946 -11.741804 -3.959660 -5.301705 -12.967945 -31.078386 12.179484 -60.451129 -62.014437 27.460167 -13.186404 0.068019 13.795848 6.368677 -26.876542 -2.353150 -7.762033 63.556467 -9.361029 5.489676 14.055644 9.460414 -0.467342 -6.266525 0.255142 -6.503618 -32.011477 -1.683315 29.025119 53.561348 27.379372 -11.613145 44.236283 3.328734 1.055222 -21.453174 -7.305137
-17.470510 57.582189 71.247613 178.909222 -45.078635 -2.448224 1.278895 28.380258 5.374031 0.142951 5.333471 0.727209 0.198367 8.330564 1.133247 1.027466 23.030665 3.351088 -0.580038 12.101942 -3.072872 0.182198 -13.285202 -5.620115 3.242461 0.580184 -1.226684 16.776906 -26.687942 -22.767688 18.895001 -72.593214 6.474130 17.160352 10.985841 -17.225496 -11.780115 -3.968029 -5.348391 -12.984126 -31.319287 12.179515 -59.892463 -61.786622 26.989527 -13.216935 0.242343 13.449917 6.404783 -26.847554 -2.342232 -7.786023 63.550191 -9.362821 5.501757 14.072697 9.482974 -0.473952 -6.281901 0.249889 -6.506778 -31.981309 -1.666427 29.008697 53.571163 27.379467 -11.623868 44.217198 3.295432 1.064152 -21.436801 -7.295799
-17.478824 57.581726 71.248695 178.897584 -45.088778 -2.455645 1.252312 28.365793 5.361183 0.144718 5.337946 0.725197 0.213498 8.341655 1.137533 0.989085 23.017510 3.347134 -0.570792 12.068375 -3.093565 0.209954 -13.346407 -5.664628 3.292586 0.611220 -1.243933 16.945174 -26.899007 -22.844316 18.763122 -72.299875 6.485903 17.079852 11.120600 -17.034426 -11.760406 -3.954439 -5.381391 -13.042526 -31.577476 12.149904 -59.418491 -61.551078 26.582804 -13.235050 0.402599 13.136503 6.436964 -26.838696 -2.341527 -7.799448 63.546487 -9.360298 5.506868 14.088224 9.500339 -0.473342 -6.294287 0.246809 -6.506981 -31.970417 -1.657542 28.999766 53.574012 27.380319 -11.631996 44.206993 3.270418 1.072026 -21.426085 -7.286582
-17.488535 57.581908 71.248099 178.887440 -45.105925 -2.456242 1.230660 28.364177 5.348627 0.107534 5.314059 0.718184 0.239821 8.362619 1.139846 0.968451 23.017422 3.341220 -0.561406 12.035564 -3.114573 0.238095 -13.406058 -5.709837 3.343550 0.642878 -1.262454 17.106693 -27.109156 -22.925000 18.548374 -72.022625 6.605331 16.992731 11.285125 -16.875294 -11.740539 -3.940306 -5.413862 -13.089009 -31.836470 12.105575 -58.981117 -61.304381 26.199136 -13.248128 0.555114 12.844768 6.462927 -26.822237 -2.345299 -7.800911 63.545229 -9.351999 5.501717 14.103078 9.509603 -0.468777 -6.306726 0.248026 -6.518815 -31.957775 -1.667316 29.025636 53.577698 27.402352 -11.559110 44.195906 3.327510 1.036143 -21.419120 -7.301781
